HIERARCHY
ROOT Hips
{
	OFFSET 0.000000 0.000000 0.000000 
	CHANNELS 6 Xposition Yposition Zposition Zrotation Yrotation Xrotation
	JOINT LeftUpLeg
	{
		OFFSET 1.363060 -1.794630 0.839290 
		CHANNELS 3 Zrotation Yrotation Xrotation
		JOINT LeftLeg
		{
			OFFSET 2.448110 -6.726130 0.000000 
			CHANNELS 3 Zrotation Yrotation Xrotation
			JOINT LeftFoot
			{
				OFFSET 2.562200 -7.039590 0.000000 
				CHANNELS 3 Zrotation Yrotation Xrotation
				JOINT LeftToeBase
				{
					OFFSET 0.157640 -0.433110 2.322550 
					CHANNELS 3 Zrotation Yrotation Xrotation
					End Site
					{
						OFFSET 0.000000 0.000000 0.000000 
					}
				}
			}
		}
	}
	JOINT RightUpLeg
	{
		OFFSET -1.305520 -1.794630 0.839290 
		CHANNELS 3 Zrotation Yrotation Xrotation
		JOINT RightLeg
		{
			OFFSET -2.542530 -6.985550 0.000000 
			CHANNELS 3 Zrotation Yrotation Xrotation
			JOINT RightFoot
			{
				OFFSET -2.568260 -7.056230 0.000000 
				CHANNELS 3 Zrotation Yrotation Xrotation
				JOINT RightToeBase
				{
					OFFSET -0.164730 -0.452590 2.363150 
					CHANNELS 3 Zrotation Yrotation Xrotation
					End Site
					{
						OFFSET 0.000000 0.000000 0.000000 
					}
				}
			}
		}
	}
	JOINT Spine
	{
		OFFSET 0.028270 2.035590 -0.193380 
		CHANNELS 3 Zrotation Yrotation Xrotation
		JOINT Spine1
		{
			OFFSET 0.056720 2.048850 -0.042750 
			CHANNELS 3 Zrotation Yrotation Xrotation
			JOINT Neck1
			{
				OFFSET -0.054170 1.746240 0.172020 
				CHANNELS 3 Zrotation Yrotation Xrotation
				JOINT Head
				{
					OFFSET 0.104070 1.761360 -0.123970 
					CHANNELS 3 Zrotation Yrotation Xrotation
					End Site
					{
						OFFSET 0.000000 0.000000 0.000000 
					}
				}
			}
			JOINT LeftArm
			{
				OFFSET 3.362410 1.200890 -0.311210 
				CHANNELS 3 Zrotation Yrotation Xrotation
				JOINT LeftForeArm
				{
					OFFSET 4.983000 -0.000000 -0.000000 
					CHANNELS 3 Zrotation Yrotation Xrotation
					JOINT LeftHand
					{
						OFFSET 3.483560 -0.000000 -0.000000 
						CHANNELS 3 Zrotation Yrotation Xrotation
						JOINT LeftHandIndex1
						{
							OFFSET 0.715260 -0.000000 -0.000000 
							CHANNELS 3 Zrotation Yrotation Xrotation
							End Site
							{
								OFFSET 0.000000 0.000000 0.000000 
							}
						}
					}
				}
			}
			JOINT RightArm
			{
				OFFSET -3.136600 1.374050 -0.404650 
				CHANNELS 3 Zrotation Yrotation Xrotation
				JOINT RightForeArm
				{
					OFFSET -5.241900 -0.000000 -0.000000 
					CHANNELS 3 Zrotation Yrotation Xrotation
					JOINT RightHand
					{
						OFFSET -3.444170 -0.000000 -0.000000 
						CHANNELS 3 Zrotation Yrotation Xrotation
						JOINT RightHandIndex1
						{
							OFFSET -0.622530 -0.000000 -0.000000 
							CHANNELS 3 Zrotation Yrotation Xrotation
							End Site
							{
								OFFSET 0.000000 0.000000 0.000000 
							}
						}
					}
				}
			}
		}
	}
}
MOTION
Frames: 16
Frame Time: 0.041667
3.332446 20.294491 -3.737095 -55.461797 -28.080587 84.672891 19.103184 7.468673 -46.486014 1.964647 8.172567 18.628843 8.843089 -9.014858 -42.434476 8.360300 16.377900 53.850200 4.925169 -3.533196 22.612425 -12.008288 -15.174286 56.345176 -8.758575 -31.970401 61.538666 -0.580800 -4.880000 13.566600 1.380109 11.891199 -10.371082 -6.955702 4.270371 -13.990705 13.049016 14.425973 -4.171973 3.311100 7.362800 2.974100 1.206742 27.469053 -16.703050 9.209596 -10.817025 -1.875732 0.215867 0.908376 34.967376 -7.125000 0.000000 0.000000 -24.923111 -4.776343 -49.746784 -8.015733 12.910029 -1.529449 -0.862145 1.696592 12.525091 7.125000 0.000000 0.000000 
3.339258 20.272247 -3.762638 -55.313217 -27.297747 84.113528 20.011201 6.964429 -46.475504 2.176186 8.444676 19.143248 9.190107 -10.155681 -42.432606 8.402500 16.407400 53.999700 6.171831 -4.339333 22.591889 -11.732642 -15.108355 55.628998 -8.667271 -30.115516 61.137002 -0.451100 -4.309100 11.948000 1.425904 11.797354 -10.231210 -7.217715 4.178973 -13.669445 12.948367 14.429688 -4.398580 3.276000 7.355000 2.940700 1.121272 27.364542 -16.614329 9.232223 -10.900019 -1.894271 0.190673 0.894669 34.478711 -7.125000 0.000000 0.000000 -24.725572 -4.943527 -50.774859 -7.931507 12.749699 -1.519270 -0.869244 1.684221 13.467142 7.125000 0.000000 0.000000 
3.353839 20.244895 -3.800315 -55.259715 -25.752609 83.239234 21.789490 6.260357 -46.287793 2.353714 8.660239 19.711511 9.137917 -10.225686 -42.476577 8.409700 16.412500 54.025300 8.342307 -5.230683 22.946109 -11.612845 -15.105765 54.959866 -8.286612 -33.788214 60.760043 -0.777100 -5.628200 15.709400 1.541586 11.749971 -10.093393 -7.632347 4.026215 -13.545374 12.767268 14.411720 -4.511829 3.190100 7.336000 2.946800 1.059019 27.263623 -16.538205 9.183249 -10.873055 -1.884741 0.176181 0.887564 34.189584 -7.125000 0.000000 0.000000 -24.639846 -4.892825 -52.232986 -7.776641 12.547894 -1.483472 -0.861138 1.665345 14.540030 7.125000 0.000000 0.000000 
3.350326 20.238934 -3.804146 -55.200110 -26.720427 83.152420 21.005924 6.147741 -46.367142 2.409687 8.884132 20.244185 9.301263 -10.662186 -42.424937 8.421100 16.420400 54.065700 7.352792 -5.951850 22.252454 -11.411873 -14.991435 54.329051 -8.206648 -31.867255 60.332449 -0.617200 -5.027800 13.987800 1.434793 11.813923 -10.015827 -7.492574 4.195584 -13.386249 12.652335 14.353297 -4.620232 3.132500 7.290000 2.848400 1.102564 26.804246 -17.353244 8.964498 -10.563499 -1.795027 0.208342 0.843229 35.255627 -7.125000 0.000000 0.000000 -24.596505 -4.865563 -52.866789 -7.676134 12.390472 -1.443075 -0.845917 1.658593 15.000431 7.125000 0.000000 0.000000 
3.337661 20.248194 -3.775091 -55.069064 -30.036127 83.781099 17.898485 6.534192 -46.767368 2.282077 9.078195 20.730922 9.456859 -10.762759 -42.489244 8.410000 16.412700 54.026500 3.435076 -6.592107 20.477005 -11.418651 -14.838413 53.784575 -8.206277 -34.622662 60.681260 -0.968400 -6.265400 17.556400 1.130329 11.930525 -9.987282 -6.868882 4.626259 -13.191940 12.620749 14.305482 -4.710891 3.117800 7.249800 2.725000 1.189033 26.308343 -17.730298 8.752140 -10.304728 -1.730238 0.216765 0.788651 35.853054 -7.125000 0.000000 0.000000 -24.579847 -4.882137 -53.264861 -7.562095 12.221033 -1.407310 -0.837260 1.629516 15.457592 7.125000 0.000000 0.000000 
3.335320 20.248513 -3.763383 -55.017950 -31.990559 83.947131 16.145922 6.640650 -46.909566 2.241836 9.261780 21.191697 9.559057 -10.903664 -42.463567 8.411600 16.413800 54.032000 1.365715 -7.224019 19.244077 -11.287205 -14.703705 53.198862 -8.179745 -33.549017 60.470911 -0.852000 -5.886700 16.456100 0.953474 12.026004 -9.913645 -6.503915 4.907276 -13.032186 12.540381 14.284443 -4.809994 3.088500 7.223800 2.629400 1.185271 26.000920 -17.195775 8.672481 -10.292494 -1.731142 0.197806 0.756969 35.252366 -7.125000 0.000000 0.000000 -24.605075 -4.806667 -54.266320 -7.391190 12.004180 -1.355338 -0.819383 1.598189 16.395511 7.125000 0.000000 0.000000 
3.339151 20.240850 -3.772749 -55.018029 -32.460152 83.712876 15.807505 6.508497 -46.738611 2.308999 9.384311 21.399349 9.769568 -11.537487 -42.350866 8.472600 16.456100 54.247700 1.217437 -7.902456 18.607608 -11.169616 -14.631595 52.622683 -8.086665 -34.785437 60.443672 -0.921100 -6.114800 17.117900 0.920523 12.047985 -9.832008 -6.425142 4.992428 -12.919309 12.417266 14.258664 -4.735583 3.023800 7.208000 2.695400 1.127244 25.837324 -16.667429 8.703602 -10.409618 -1.763030 0.184006 0.746780 34.461709 -7.125000 0.000000 0.000000 -24.485728 -4.753794 -54.480324 -7.380098 11.981909 -1.352037 -0.816207 1.599655 16.552222 7.125000 0.000000 0.000000 
3.344686 20.234464 -3.781689 -54.942669 -33.026613 83.419929 15.434827 6.315100 -46.531735 2.288739 9.449180 21.570496 9.773973 -11.375296 -42.606247 8.458800 16.446600 54.199100 0.979826 -8.590407 18.048868 -11.107237 -14.561686 52.012252 -7.615162 -37.321311 59.812853 -1.019000 -6.422000 18.014000 0.881465 12.063161 -9.759744 -6.365947 5.073772 -12.820879 12.293684 14.120879 -4.497430 2.950200 7.147500 2.899200 0.986079 25.747024 -15.938524 9.001369 -10.893670 -1.876472 0.138323 0.712004 33.345439 -7.125000 0.000000 0.000000 -24.330313 -4.717484 -54.411245 -7.428053 12.020986 -1.360708 -0.815329 1.611855 16.563676 7.125000 0.000000 0.000000 
3.322867 20.268309 -3.761893 -54.896918 -34.476059 83.099601 14.163688 6.338840 -46.024880 2.175513 9.465729 21.702765 9.671734 -10.805799 -42.699749 8.389900 16.398700 53.955300 -0.192358 -9.205423 17.471963 -10.885492 -14.404346 51.267627 -7.863636 -35.834261 60.126798 -0.615500 -5.020900 13.968100 0.772454 12.075041 -9.667761 -6.180413 5.238747 -12.826975 12.239092 14.096627 -4.358060 2.879800 7.138600 2.998100 0.927923 25.865595 -14.654781 9.334115 -11.425580 -1.988354 0.114959 0.660406 32.135986 -7.125000 0.000000 0.000000 -24.211297 -4.443487 -55.345270 -7.352391 11.947685 -1.335862 -0.797377 1.610175 17.521578 7.125000 0.000000 0.000000 
3.328827 20.251174 -3.766470 -54.837854 -34.433042 83.020314 14.364460 6.114998 -46.185392 2.224214 9.615364 22.123638 9.625905 -10.629456 -42.961568 8.347600 16.369100 53.805400 0.335387 -9.911057 16.816116 -10.853022 -14.363416 50.612075 -6.981424 -39.680661 58.891655 -1.114100 -6.705600 18.846200 0.754497 12.091861 -9.596493 -6.318687 5.239534 -12.570543 12.271934 14.143828 -4.162112 2.895400 7.171900 3.033400 0.928399 25.828024 -14.320954 9.431118 -11.589597 -2.003280 0.134080 0.632248 32.142998 -7.125000 0.000000 0.000000 -24.125331 -4.097563 -56.057728 -7.203175 11.818226 -1.309097 -0.784735 1.595311 18.406223 7.125000 0.000000 0.000000 
3.332659 20.231697 -3.769876 -54.867502 -33.751940 82.998509 15.222965 5.838932 -46.374568 2.266013 9.724734 22.529897 9.402477 -9.963539 -43.294528 8.300800 16.336100 53.639100 1.804070 -10.469784 16.278390 -10.825513 -14.354373 49.913522 -5.339093 -44.712007 56.551490 -1.993500 -8.852500 25.335100 0.791069 12.131008 -9.529922 -6.493074 5.197768 -12.214682 12.335785 14.198566 -3.949441 2.960300 7.210700 3.043400 0.877839 25.649732 -14.742835 9.472546 -11.646594 -1.995470 0.160112 0.617048 32.645133 -7.125000 0.000000 0.000000 -23.969825 -3.960407 -54.497684 -7.301605 11.974712 -1.343757 -0.791166 1.622548 17.093532 7.125000 0.000000 0.000000 
3.362353 20.176673 -3.805210 -54.965231 -33.342917 83.000795 15.867995 5.593122 -46.742185 2.373457 9.930028 23.104172 9.389773 -9.855972 -43.752088 8.282500 16.323200 53.574000 2.851197 -10.764282 15.697141 -10.744795 -14.337457 49.432273 -4.458432 -46.433673 55.203674 -2.214000 -9.298300 26.733100 0.808269 12.254867 -9.465976 -6.603685 5.239240 -11.918211 12.357834 14.102591 -3.507928 3.017000 7.191000 3.279200 0.972263 25.341502 -14.589913 9.444199 -11.658526 -1.990517 0.154707 0.581989 32.672369 -7.125000 0.000000 0.000000 -24.141214 -3.460185 -57.085284 -6.908775 11.584962 -1.258818 -0.762302 1.560232 19.729278 7.125000 0.000000 0.000000 
3.366717 20.167307 -3.822559 -54.993568 -33.244805 82.778394 15.994697 5.426689 -46.654403 2.549048 10.094072 23.308123 9.828937 -11.198918 -43.789162 8.324900 16.353100 53.724800 3.673593 -11.101335 15.265354 -10.533449 -14.266504 48.848960 -4.786990 -44.978910 55.534942 -1.783000 -8.398600 23.931500 0.826703 12.290668 -9.406119 -6.578495 5.277252 -11.743680 12.381252 13.911070 -2.678187 2.740200 7.166700 3.453600 1.092309 24.954900 -14.677967 9.362655 -11.578344 -1.981954 0.130088 0.552046 32.941642 -7.125000 0.000000 0.000000 -24.211786 -3.084866 -58.594630 -6.701577 11.394582 -1.222763 -0.750786 1.527740 21.206624 7.125000 0.000000 0.000000 
3.369697 20.167307 -3.844483 -54.935518 -33.904028 82.365452 15.485355 5.309540 -46.397200 2.594931 10.198375 23.502315 10.009679 -11.640002 -43.858042 8.313900 16.345300 53.685500 3.570001 -11.399513 14.940821 -10.247450 -14.139351 48.345158 -5.982493 -39.930431 56.931042 -0.978500 -6.296900 17.648400 0.800318 12.235346 -9.350960 -6.398102 5.338948 -11.717928 12.460956 13.858782 -1.911952 2.778400 7.202100 3.933900 1.241181 24.657170 -14.935404 9.287747 -11.463459 -1.965938 0.121612 0.529943 33.409294 -7.125000 0.000000 0.000000 -24.095688 -2.835389 -58.798456 -6.632155 11.305665 -1.205961 -0.741774 1.507337 21.320746 7.125000 0.000000 0.000000 
3.344579 20.200513 -3.828944 -54.898451 -34.264582 82.218612 15.222892 5.257184 -46.165873 2.553640 10.214781 23.619342 9.910600 -11.183271 -44.039014 8.276000 16.318500 53.550700 4.089534 -11.629741 14.447309 -9.996516 -14.029975 47.685036 -6.153949 -37.746552 56.913439 -0.705300 -5.367900 14.961000 0.788952 12.255194 -9.327127 -6.223125 5.408424 -11.628924 12.655514 13.856808 -0.989377 2.911600 7.272700 4.430300 1.346359 24.356348 -14.743979 9.216038 -11.386082 -1.959000 0.115530 0.518101 33.552356 -7.125000 0.000000 0.000000 -24.066457 -2.550393 -59.300806 -6.502102 11.146831 -1.170747 -0.725234 1.474912 21.964473 7.125000 0.000000 0.000000 
3.345005 20.186251 -3.840013 -54.961096 -34.026806 82.368009 15.520081 5.214197 -46.280661 2.584380 10.242842 23.666814 9.975363 -11.253807 -44.418614 8.246500 16.297600 53.445700 5.191250 -11.765965 13.753827 -9.757821 -13.953120 47.067719 -6.193101 -36.359615 56.781251 -0.523600 -4.637400 12.877200 0.806972 12.429002 -9.311909 -6.082010 5.518405 -11.468821 12.521256 13.597933 -0.529467 2.866200 7.148900 4.579600 1.265100 23.973109 -14.226540 9.171421 -11.408478 -1.953176 0.124721 0.495834 33.560086 -7.125000 0.000000 0.000000 -24.196543 -2.225756 -60.186685 -6.338849 11.014172 -1.132514 -0.703383 1.449059 23.341859 7.125000 0.000000 0.000000 
